<?xml version="1.0" standalone="no"?><!DOCTYPE svg PUBLIC "-//W3C//DTD SVG 1.1//EN" "http://www.w3.org/Graphics/SVG/1.1/DTD/svg11.dtd"><svg width="100%" height="100%" viewBox="0 0 482 155" version="1.1" xmlns="http://www.w3.org/2000/svg" xmlns:xlink="http://www.w3.org/1999/xlink" xml:space="preserve" style="fill-rule:evenodd;clip-rule:evenodd;stroke-linejoin:round;stroke-miterlimit:1.41421;"><g><path d="M130.238,86.496c-4.42,6.79 -12.08,11.218 -20.726,11.218c-9.784,0 -18.245,-5.706 -22.317,-14.002l-18.436,28.303c10.273,10.833 24.733,17.579 40.753,17.579c19.775,0 37.17,-10.279 47.251,-25.836l57.497,-88.253l-37.766,0l-46.256,70.991ZM88.786,58.602c4.42,-6.79 12.08,-11.217 20.726,-11.217c9.784,0 18.245,5.705 22.317,14.001l18.436,-28.303c-10.273,-10.832 -24.733,-17.578 -40.753,-17.578c-19.775,0 -37.171,10.279 -47.251,25.836l-57.497,88.253l37.766,0l46.256,-70.992l0,0ZM109.512,59.85c6.94,0 12.566,5.685 12.566,12.699c0,7.014 -5.626,12.7 -12.566,12.7c-6.94,0 -12.566,-5.686 -12.566,-12.7c0,-7.014 5.626,-12.699 12.566,-12.699" style="fill:#7a00d1;fill-rule:nonzero;"/><path d="M218.437,102.019l19.392,-63.072l10.368,0l19.488,63.072l-10.272,0l-3.744,-12.672l-21.792,0l-3.744,12.672l-9.696,0ZM234.181,80.803l17.184,0l-8.64,-29.28l-8.544,29.28Z" style="fill:#23282d;fill-rule:nonzero;"/><path d="M298.117,70.531l19.68,0l0,12.384c0,3.072 -0.512,5.856 -1.536,8.352c-1.024,2.496 -2.448,4.608 -4.272,6.336c-1.824,1.728 -4.032,3.056 -6.624,3.984c-2.592,0.928 -5.456,1.392 -8.592,1.392c-3.2,0 -6.112,-0.48 -8.736,-1.44c-2.624,-0.96 -4.864,-2.336 -6.72,-4.128c-1.856,-1.792 -3.312,-3.952 -4.368,-6.48c-1.056,-2.528 -1.584,-5.392 -1.584,-8.592l0,-23.712c0,-6.4 1.92,-11.44 5.76,-15.12c3.84,-3.68 9.12,-5.52 15.84,-5.52c3.136,0 5.984,0.448 8.544,1.344c2.56,0.896 4.752,2.16 6.576,3.792c1.824,1.632 3.232,3.632 4.224,6c0.992,2.368 1.488,5.024 1.488,7.968l0,1.44l-9.6,0l0,-1.536c0,-3.008 -0.976,-5.44 -2.928,-7.296c-1.952,-1.856 -4.752,-2.784 -8.4,-2.784c-3.712,0 -6.576,1.088 -8.592,3.264c-2.016,2.176 -3.024,4.992 -3.024,8.448l0,23.712c0,3.456 1.008,6.272 3.024,8.448c2.016,2.176 4.848,3.264 8.496,3.264c3.84,0 6.752,-1.024 8.736,-3.072c1.984,-2.048 2.976,-4.704 2.976,-7.968l0,-4.608l-10.368,0l0,-7.872Z" style="fill:#23282d;fill-rule:nonzero;"/><path d="M333.253,38.947l12.672,28.032l12.576,-28.032l9.984,0l-17.952,37.728l0,25.344l-9.888,0l0,-25.248l-17.952,-37.824l10.56,0Z" style="fill:#23282d;fill-rule:nonzero;"/></g></svg>